# File created by Blade
# Date/Time:  Wed Jan 21 16:20:01 2015
# Frame Rate: 120.000 fps
#------------------------------------------------------
:FULLY-SPECIFIED
:DEGREES
803
root 12.386153 36.298104 -20.089552 -187.288254 -53.528448 -173.498021
Spine -3.329844 -29.513027 2.549602
Head 43.944992 -54.137900 -13.772088
LeftShoulder -11.798281 -20.625563 1.339512
LeftArm -19.106679 28.278018 -61.610585
LeftForeArm 25.179084 -0.000000 54.106229
LeftHand 1.237084 -0.000000 -2.422581
LeftHandThumb1 -26.253704 0.000000 33.147579
RightShoulder -18.214507 -8.025498 3.415018
RightArm -16.535057 55.561792 34.951495
RightForeArm -7.377116 -0.000000 28.066427
RightHand -12.538410 0.000000 -13.609209
RightHandThumb1 -24.326973 -0.000000 -32.862282
LeftUpLeg 12.989483 -20.559107 -5.827881
LeftLeg -13.747100 -0.000000 0.000000
LeftFoot 4.297858 6.285635 -1.500410
LeftToeBase -153.362407 -0.000000 0.000000
RightUpLeg -40.671395 17.277962 12.123357
RightLeg 84.065946 -0.000000 -0.000000
RightFoot -1.702546 -38.375452 0.760671
RightToeBase 4.627926 -0.000000 -0.000000
804
root 12.367704 36.298670 -20.065923 -187.230107 -53.242444 -173.225293
Spine -3.412226 -28.971405 2.812895
Head 43.367940 -53.819900 -13.061480
LeftShoulder -11.865185 -20.597112 1.466631
LeftArm -19.352817 27.554142 -60.945335
LeftForeArm 23.545005 -0.000000 52.454901
LeftHand 1.314127 -0.000000 -1.767581
LeftHandThumb1 -26.253704 0.000000 33.147579
RightShoulder -18.182852 -7.942859 3.590426
RightArm -15.062940 55.702597 35.999094
RightForeArm -7.276836 -0.000000 28.438481
RightHand -12.369460 -0.000000 -13.653874
RightHandThumb1 -24.326973 -0.000000 -32.862282
LeftUpLeg 12.749786 -20.397012 -5.589706
LeftLeg -13.820602 -0.000000 0.000000
LeftFoot 4.252625 6.328899 -1.408384
LeftToeBase -153.563564 -0.000000 0.000000
RightUpLeg -38.968814 16.199580 11.750058
RightLeg 82.041865 -0.000000 -0.000000
RightFoot -3.680818 -38.451048 2.380489
RightToeBase 3.879029 -0.000000 -0.000000
805
root 12.345019 36.299272 -20.047201 -187.169504 -52.964913 -172.984361
Spine -3.484233 -28.406191 3.021923
Head 42.877202 -53.520535 -12.448214
LeftShoulder -11.877697 -20.496381 1.585388
LeftArm -19.535231 26.787412 -60.279505
LeftForeArm 21.701886 0.000000 50.674251
LeftHand 1.362040 0.000000 -1.072019
LeftHandThumb1 -26.253704 0.000000 33.147579
RightShoulder -18.217551 -7.940444 3.802669
RightArm -13.461843 55.967563 37.163920
RightForeArm -7.621798 -0.000000 28.896364
RightHand -12.490845 -0.000000 -13.218209
RightHandThumb1 -24.326973 -0.000000 -32.862282
LeftUpLeg 12.539197 -20.227953 -5.380463
LeftLeg -13.879725 -0.000000 0.000000
LeftFoot 4.245973 6.341037 -1.341944
LeftToeBase -153.723340 -0.000000 0.000000
RightUpLeg -37.216554 15.141499 11.339706
RightLeg 79.941603 -0.000000 -0.000000
RightFoot -5.284723 -38.428771 3.260495
RightToeBase 4.224694 -0.000000 -0.000000
806
root 12.322328 36.299603 -20.032273 -187.089109 -52.633272 -172.755248
Spine -3.571118 -27.812453 3.216531
Head 42.393093 -53.147335 -11.808679
LeftShoulder -11.876522 -20.446732 1.700765
LeftArm -19.807538 25.950904 -59.602308
LeftForeArm 19.841886 -0.000000 48.825683
LeftHand 1.465273 -0.000000 -0.647738
LeftHandThumb1 -26.253704 0.000000 33.147579
RightShoulder -18.235257 -7.871041 3.986391
RightArm -11.788312 55.991501 38.406612
RightForeArm -7.514650 0.000000 29.311743
RightHand -12.468711 -0.000000 -13.214567
RightHandThumb1 -24.326973 -0.000000 -32.862282
LeftUpLeg 12.324470 -20.004805 -5.161454
LeftLeg -13.937097 -0.000000 0.000000
LeftFoot 4.202739 6.369218 -1.285001
LeftToeBase -153.816350 -0.000000 0.000000
RightUpLeg -35.458255 14.180868 10.909079
RightLeg 77.757492 -0.000000 -0.000000
RightFoot -6.769572 -38.285957 4.382262
RightToeBase 3.679441 -0.000000 -0.000000
807
root 12.303232 36.299656 -20.016536 -186.966621 -52.308030 -172.563543
Spine -3.666149 -27.323606 3.369287
Head 41.941759 -52.732603 -11.182105
LeftShoulder -11.938243 -20.420976 1.898540
LeftArm -20.100528 25.033366 -58.974175
LeftForeArm 17.957457 -0.000000 46.787729
LeftHand 1.625324 0.000000 -0.223302
LeftHandThumb1 -26.253704 0.000000 33.147579
RightShoulder -18.183898 -7.858410 4.186382
RightArm -9.956302 55.965607 39.808317
RightForeArm -7.485269 -0.000000 29.767881
RightHand -12.449852 -0.000000 -13.019480
RightHandThumb1 -24.326973 -0.000000 -32.862282
LeftUpLeg 12.073920 -19.751992 -4.956749
LeftLeg -13.957164 -0.000000 0.000000
LeftFoot 4.123326 6.342897 -1.189153
LeftToeBase -154.000170 -0.000000 0.000000
RightUpLeg -33.721643 13.250117 10.428898
RightLeg 75.523053 -0.000000 -0.000000
RightFoot -8.088077 -38.054446 5.492025
RightToeBase 3.207772 -0.000000 -0.000000
808
root 12.278434 36.300414 -19.999785 -186.769605 -51.931254 -172.469244
Spine -3.772613 -26.739048 3.451432
Head 41.502796 -52.227370 -10.589156
LeftShoulder -11.918056 -20.300482 1.965295
LeftArm -20.401031 24.257392 -58.233703
LeftForeArm 15.712352 -0.000000 44.896141
LeftHand 1.837584 -0.000000 0.315057
LeftHandThumb1 -26.253704 0.000000 33.147579
RightShoulder -18.169360 -7.838209 4.402504
RightArm -8.087455 55.740102 41.213496
RightForeArm -7.323301 -0.000000 30.166413
RightHand -12.276283 -0.000000 -13.268953
RightHandThumb1 -24.326973 -0.000000 -32.862282
LeftUpLeg 11.826917 -19.544909 -4.828449
LeftLeg -13.942636 -0.000000 0.000000
LeftFoot 4.125040 6.358335 -1.240978
LeftToeBase -154.352141 -0.000000 0.000000
RightUpLeg -31.977471 12.374226 9.866926
RightLeg 73.247744 -0.000000 -0.000000
RightFoot -9.257117 -37.632339 6.443771
RightToeBase 2.020234 -0.000000 -0.000000
809
root 12.256135 36.300243 -19.995164 -186.635217 -51.523172 -172.286167
Spine -3.903639 -26.153095 3.570872
Head 41.184516 -51.802773 -10.098488
LeftShoulder -11.899357 -20.172347 2.117005
LeftArm -20.724320 23.378998 -57.559996
LeftForeArm 13.755582 -0.000000 42.901505
LeftHand 1.921923 -0.000000 0.654199
LeftHandThumb1 -26.253704 0.000000 33.147579
RightShoulder -18.199645 -7.881645 4.632630
RightArm -6.052488 55.475754 42.756220
RightForeArm -7.389080 -0.000000 30.635048
RightHand -12.295499 -0.000000 -13.214700
RightHandThumb1 -24.326973 -0.000000 -32.862282
LeftUpLeg 11.573395 -19.176500 -4.606934
LeftLeg -13.929344 -0.000000 0.000000
LeftFoot 4.001652 6.277166 -1.096196
LeftToeBase -154.407698 -0.000000 0.000000
RightUpLeg -30.197575 11.595387 9.388800
RightLeg 70.864945 -0.000000 -0.000000
RightFoot -10.103444 -37.383538 6.852912
RightToeBase 1.590839 -0.000000 -0.000000
810
root 12.240190 36.302269 -19.983582 -186.504636 -51.117004 -172.098069
Spine -4.016981 -25.642870 3.691197
Head 40.817398 -51.248386 -9.541358
LeftShoulder -11.889195 -20.112026 2.293750
LeftArm -21.066293 22.319803 -56.886752
LeftForeArm 11.961481 -0.000000 40.725561
LeftHand 2.104396 -0.000000 0.755130
LeftHandThumb1 -26.253704 0.000000 33.147579
RightShoulder -18.072170 -7.801587 4.790900
RightArm -4.280362 55.153316 44.153829
RightForeArm -7.361646 0.000000 31.163165
RightHand -12.265350 0.000000 -13.130980
RightHandThumb1 -24.326973 -0.000000 -32.862282
LeftUpLeg 11.253732 -18.755223 -4.381530
LeftLeg -13.817209 -0.000000 0.000000
LeftFoot 3.848428 6.197223 -0.915661
LeftToeBase -154.428812 -0.000000 0.000000
RightUpLeg -28.447904 10.841524 8.887273
RightLeg 68.433006 -0.000000 -0.000000
RightFoot -11.038367 -37.107596 7.570659
RightToeBase 1.380465 -0.000000 -0.000000
811
root 12.214390 36.304908 -19.983431 -186.333369 -50.580511 -171.939978
Spine -4.209923 -24.997287 3.831660
Head 40.519219 -50.693924 -9.082093
LeftShoulder -11.914667 -19.954835 2.436929
LeftArm -21.410315 21.467698 -56.232109
LeftForeArm 9.955313 -0.000000 38.653162
LeftHand 2.160172 -0.000000 0.811492
LeftHandThumb1 -26.253704 0.000000 33.147579
RightShoulder -18.013296 -7.802665 4.925257
RightArm -2.417537 54.819803 45.629885
RightForeArm -7.686855 -0.000000 31.700880
RightHand -12.238661 -0.000000 -12.911714
RightHandThumb1 -24.326973 -0.000000 -32.862282
LeftUpLeg 11.017098 -18.296159 -4.169854
LeftLeg -13.833638 -0.000000 0.000000
LeftFoot 3.619540 6.310309 -0.772278
LeftToeBase -154.646103 -0.000000 0.000000
RightUpLeg -26.683050 10.210952 8.381061
RightLeg 65.920181 -0.000000 -0.000000
RightFoot -12.096243 -36.967676 8.366072
RightToeBase 1.862160 -0.000000 -0.000000
812
root 12.194442 36.311106 -19.979498 -186.236683 -50.060453 -171.723034
Spine -4.328961 -24.396581 3.979144
Head 40.241870 -50.119630 -8.652598
LeftShoulder -11.978511 -19.794743 2.581870
LeftArm -21.661170 20.691000 -55.594015
LeftForeArm 8.014770 -0.000000 36.477494
LeftHand 2.123692 -0.000000 1.348677
LeftHandThumb1 -26.253704 0.000000 33.147579
RightShoulder -17.901081 -7.689957 5.046261
RightArm -0.720359 54.237436 46.939305
RightForeArm -7.849043 0.000000 32.248972
RightHand -12.134421 -0.000000 -12.686598
RightHandThumb1 -24.326973 -0.000000 -32.862282
LeftUpLeg 10.753105 -17.715324 -3.926538
LeftLeg -13.768551 -0.000000 0.000000
LeftFoot 3.400275 6.246207 -0.570611
LeftToeBase -154.978934 -0.000000 0.000000
RightUpLeg -24.947651 9.618108 7.910762
RightLeg 63.390417 -0.000000 -0.000000
RightFoot -12.954544 -36.894913 9.505520
RightToeBase 1.974134 -0.000000 -0.000000
813
root 12.173627 36.316653 -19.984923 -186.143317 -49.622514 -171.488506
Spine -4.490343 -23.893881 4.114211
Head 40.026482 -49.567954 -8.277777
LeftShoulder -12.091941 -19.663928 2.803358
LeftArm -21.968438 20.001584 -55.040869
LeftForeArm 6.062790 0.000000 34.300070
LeftHand 2.154303 -0.000000 1.824738
LeftHandThumb1 -26.253704 0.000000 33.147579
RightShoulder -17.821941 -7.688110 5.191050
RightArm 1.124603 53.693018 48.362499
RightForeArm -8.302648 -0.000000 32.760870
RightHand -12.096234 0.000000 -12.519058
RightHandThumb1 -24.326973 -0.000000 -32.862282
LeftUpLeg 10.512932 -17.285733 -3.670367
LeftLeg -13.736519 -0.000000 0.000000
LeftFoot 3.262832 6.180283 -0.387253
LeftToeBase -154.957340 -0.000000 0.000000
RightUpLeg -23.172788 8.865860 7.436462
RightLeg 60.750972 -0.000000 -0.000000
RightFoot -13.556754 -36.961845 9.924539
RightToeBase 2.638128 -0.000000 -0.000000
814
root 12.159594 36.324194 -19.987330 -185.960001 -49.111184 -171.322780
Spine -4.674787 -23.304011 4.178073
Head 39.822040 -49.023018 -7.833830
LeftShoulder -12.188313 -19.506312 3.048337
LeftArm -22.248457 19.211238 -54.447790
LeftForeArm 4.023610 -0.000000 32.131991
LeftHand 2.412137 -0.000000 1.746644
LeftHandThumb1 -26.253704 0.000000 33.147579
RightShoulder -17.710708 -7.624234 5.360614
RightArm 2.724399 53.089755 49.568520
RightForeArm -8.936669 -0.000000 33.300231
RightHand -12.044366 0.000000 -12.323612
RightHandThumb1 -24.326973 -0.000000 -32.862282
LeftUpLeg 10.224612 -16.766015 -3.437846
LeftLeg -13.702504 -0.000000 0.000000
LeftFoot 3.183002 6.135825 -0.288272
LeftToeBase -154.996726 -0.000000 0.000000
RightUpLeg -21.516955 8.207728 6.928578
RightLeg 58.147279 -0.000000 -0.000000
RightFoot -13.952659 -37.151242 10.417727
RightToeBase 3.106953 -0.000000 -0.000000
815
root 12.144610 36.335126 -19.991878 -185.820678 -48.575961 -171.111165
Spine -4.858311 -22.706123 4.297793
Head 39.633028 -48.466773 -7.470110
LeftShoulder -12.299092 -19.439206 3.236200
LeftArm -22.610107 18.460439 -53.815260
LeftForeArm 2.319664 -0.000000 30.080504
LeftHand 2.364901 -0.000000 1.571852
LeftHandThumb1 -26.253704 0.000000 33.147579
RightShoulder -17.537578 -7.553080 5.503448
RightArm 4.175401 52.406423 50.638781
RightForeArm -9.449236 0.000000 33.876531
RightHand -12.023458 -0.000000 -12.109520
RightHandThumb1 -24.326973 -0.000000 -32.862282
LeftUpLeg 9.974540 -16.266748 -3.184782
LeftLeg -13.704187 -0.000000 0.000000
LeftFoot 3.146287 6.155500 -0.242751
LeftToeBase -155.012400 -0.000000 0.000000
RightUpLeg -19.862304 7.485056 6.439964
RightLeg 55.490522 -0.000000 -0.000000
RightFoot -14.360416 -37.322397 11.024150
RightToeBase 3.269744 -0.000000 -0.000000
